<?xml version="1.0" encoding="UTF-8"?>
<svg id="Layer_2" data-name="Layer 2" xmlns="http://www.w3.org/2000/svg" viewBox="0 0 4344.29 894.49">
  <defs>
    <style>
      .cls-1 {
        fill: #0a0;
      }

      .cls-2 {
        font-family: Montserrat-Light, Montserrat;
        font-size: 725.86px;
        font-weight: 300;
      }
    </style>
  </defs>
  <g id="Layer_1-2" data-name="Layer 1">
    <g>
      <g>
        <path class="cls-1" d="m2251.62,708.8c-96.57,41.68-189.76,50.37-196.76,50.98-5.78.49-11.47-1.76-15.33-6.09-8.56-9.57-208.58-236.87-126.07-444.71C1995.09,103.35,2321.22,4.83,2335.07.76c8.16-2.41,16.9,1.06,21.18,8.41,7.27,12.47,177.02,307.86,95.38,513.47-37.42,94.26-119.89,151.57-200.02,186.16h.01Zm-190.62,13.15c50.31-6.41,289.8-45.44,356.34-212.92,65.99-166.23-54.57-409.87-85.85-468.35-62.86,21.13-317.78,115.87-383.72,281.92-66.6,167.78,80.98,360.2,113.24,399.35h0Zm373.49-206.12l.08-.04-.08.04Z"/>
        <path class="cls-1" d="m2007.15,892.98c-4.33,1.87-9.39,2.09-14.12.21-9.48-3.76-14.1-14.49-10.34-23.96l161.09-351.37c3.76-9.48,14.49-14.1,23.96-10.34,9.48,3.76,14.1,14.49,10.34,23.96l-161.09,351.37c-1.88,4.74-5.5,8.26-9.83,10.13h0Z"/>
        <path class="cls-1" d="m2520.89,669.52c-105.06,4.9-195.32-19.88-202.08-21.78-5.58-1.58-10.11-5.7-12.2-11.11-4.63-11.98-111.5-295.26,39.09-460.57,148.98-163.56,488.89-140.57,503.29-139.49,8.48.62,15.43,6.96,16.84,15.34,2.4,14.24,56.9,350.54-92.08,514.08-68.29,74.97-165.69,99.47-252.88,103.53h.02Zm-182.99-55.01c49.33,11.77,287.17,59.82,408.57-73.37,120.44-132.22,93.68-402.73,85.06-468.49-66.27-2.43-338.22-3.81-458.55,128.25-121.56,133.45-51.43,365.59-35.08,413.61h0Zm422.21-60.95h.09s-.09,0-.09,0Z"/>
      </g>
      <text class="cls-2" transform="translate(0 674.58)"><tspan x="0" y="0">LEAF</tspan></text>
      <text class="cls-2" transform="translate(2604.42 674.58)"><tspan x="0" y="0">LINK</tspan></text>
    </g>
  </g>
</svg>